<svg width="270.32" height="37.888" viewBox="0 0 270.32 37.888" xmlns="http://www.w3.org/2000/svg"><g id="svgGroup" stroke-linecap="round" fill-rule="evenodd" font-size="9pt" stroke="#000" stroke-width="0.25mm" fill="#000" style="stroke:#000;stroke-width:0.25mm;fill:#000"><path d="M 3.6 24.488 L 3.68 8.608 Q 3.68 7.293 3.367 6.643 A 1.246 1.246 0 0 0 3.04 6.208 Q 2.46 5.737 1.255 5.462 A 9.897 9.897 0 0 0 1 5.408 Q 0.434 5.295 0.224 5.199 A 0.713 0.713 0 0 1 0.2 5.188 A 0.247 0.247 0 0 1 0.098 5.083 Q 0.009 4.924 0.001 4.566 A 3.308 3.308 0 0 1 0 4.488 Q 0 4.178 0.1 3.997 A 0.475 0.475 0 0 1 0.48 3.748 A 7.197 7.197 0 0 1 0.931 3.707 Q 1.163 3.693 1.423 3.689 A 12.947 12.947 0 0 1 1.6 3.688 Q 3.84 3.688 5.22 4.048 Q 6.6 4.408 7.66 5.328 A 11.069 11.069 0 0 1 8.48 6.125 Q 9.185 6.878 9.96 7.928 L 20.92 22.328 L 21.04 22.328 L 20.96 8.608 A 8.741 8.741 0 0 0 20.869 7.327 A 7.94 7.94 0 0 0 20.84 7.148 Q 20.72 6.448 20.22 5.988 Q 19.78 5.583 18.734 5.535 A 6.378 6.378 0 0 0 18.44 5.528 A 3.369 3.369 0 0 1 18.157 5.517 Q 18.011 5.504 17.886 5.479 A 1.712 1.712 0 0 1 17.76 5.448 A 0.321 0.321 0 0 1 17.591 5.322 Q 17.453 5.134 17.4 4.688 Q 17.4 4.368 17.58 4.088 A 0.579 0.579 0 0 1 17.999 3.817 A 0.816 0.816 0 0 1 18.12 3.808 A 294.215 294.215 0 0 0 18.539 3.827 Q 19.135 3.853 19.54 3.868 L 20.62 3.908 A 23.467 23.467 0 0 0 20.906 3.917 Q 21.353 3.928 21.941 3.928 A 64.372 64.372 0 0 0 21.96 3.928 A 55.926 55.926 0 0 0 22.343 3.927 Q 22.854 3.923 23.228 3.91 A 18.33 18.33 0 0 0 23.28 3.908 Q 23.8 3.888 24.34 3.868 A 80.316 80.316 0 0 0 24.629 3.857 Q 25.09 3.838 25.72 3.808 A 0.888 0.888 0 0 1 25.931 3.831 A 0.528 0.528 0 0 1 26.28 4.088 Q 26.44 4.368 26.44 4.688 A 2.831 2.831 0 0 1 26.417 4.922 Q 26.361 5.317 26.198 5.421 A 0.234 0.234 0 0 1 26.14 5.448 A 1.508 1.508 0 0 1 25.94 5.494 Q 25.729 5.528 25.44 5.528 A 5.273 5.273 0 0 0 24.832 5.56 Q 24.205 5.634 23.835 5.871 A 1.27 1.27 0 0 0 23.68 5.988 Q 23.16 6.448 23.06 7.148 A 16.154 16.154 0 0 0 22.934 8.372 A 18.049 18.049 0 0 0 22.92 8.608 L 22.84 28.768 A 0.492 0.492 0 0 1 22.764 28.983 Q 22.697 29.084 22.574 29.144 A 0.718 0.718 0 0 1 22.46 29.188 Q 22.12 29.288 21.84 29.288 A 1.771 1.771 0 0 1 21.36 29.227 A 1.269 1.269 0 0 1 20.68 28.768 L 5.6 8.608 L 5.48 8.608 L 5.56 24.488 A 16.721 16.721 0 0 0 5.67 25.728 A 14.983 14.983 0 0 0 5.7 25.948 Q 5.8 26.648 6.32 27.108 A 1.49 1.49 0 0 0 6.781 27.377 Q 7.281 27.568 8.08 27.568 A 3.992 3.992 0 0 1 8.364 27.577 Q 8.502 27.587 8.619 27.608 A 1.714 1.714 0 0 1 8.8 27.648 A 0.303 0.303 0 0 1 8.969 27.781 Q 9.094 27.97 9.12 28.408 Q 9.12 28.728 8.94 29.008 A 0.579 0.579 0 0 1 8.521 29.279 A 0.816 0.816 0 0 1 8.4 29.288 A 155.159 155.159 0 0 0 7.807 29.261 Q 7.575 29.251 7.368 29.242 A 74.773 74.773 0 0 0 6.98 29.228 Q 6.4 29.208 5.86 29.188 Q 5.326 29.168 4.539 29.168 A 64.372 64.372 0 0 0 4.52 29.168 Q 3.804 29.168 3.329 29.184 A 17.19 17.19 0 0 0 3.22 29.188 Q 2.72 29.208 2.2 29.228 Q 1.802 29.243 1.193 29.27 A 368.16 368.16 0 0 0 0.8 29.288 A 0.888 0.888 0 0 1 0.589 29.265 A 0.528 0.528 0 0 1 0.24 29.008 Q 0.08 28.728 0.08 28.408 A 2.579 2.579 0 0 1 0.106 28.159 Q 0.174 27.728 0.384 27.653 A 0.262 0.262 0 0 1 0.4 27.648 A 1.894 1.894 0 0 1 0.658 27.595 Q 0.849 27.568 1.08 27.568 Q 2.36 27.568 2.86 27.108 Q 3.36 26.648 3.48 25.948 Q 3.6 25.248 3.6 24.488 Z M 194.12 11.328 L 199.6 10.288 A 1.073 1.073 0 0 1 199.671 10.284 Q 200.053 10.275 200.2 10.568 Q 200.36 10.888 200.36 11.248 Q 200.36 11.768 200.2 12.268 A 1.572 1.572 0 0 1 200.127 12.457 Q 199.981 12.768 199.76 12.768 L 195.8 12.608 L 195.8 12.688 Q 196.438 13.326 196.899 14.35 A 8.109 8.109 0 0 1 196.96 14.488 Q 197.44 15.608 197.44 16.608 A 5.613 5.613 0 0 1 197.13 18.501 A 5.016 5.016 0 0 1 196.34 19.928 Q 195.24 21.328 193.54 22.068 Q 191.84 22.808 190 22.808 L 188.24 22.808 Q 186.16 22.808 185.22 23.208 Q 184.28 23.608 184.28 24.528 A 1.655 1.655 0 0 0 184.339 24.983 A 1.205 1.205 0 0 0 184.78 25.628 A 1.526 1.526 0 0 0 185.146 25.826 Q 185.526 25.975 186.122 26.046 A 8.37 8.37 0 0 0 186.6 26.088 L 192.08 26.288 A 25.693 25.693 0 0 1 194.18 26.446 Q 196.843 26.767 198.18 27.648 A 3.855 3.855 0 0 1 199.946 30.431 A 5.421 5.421 0 0 1 200 31.208 A 5.574 5.574 0 0 1 199.622 33.286 A 5.172 5.172 0 0 1 198.66 34.828 A 7.116 7.116 0 0 1 196.871 36.253 Q 195.997 36.755 194.9 37.108 Q 192.631 37.839 189.677 37.885 A 25.664 25.664 0 0 1 189.28 37.888 Q 183.922 37.888 181.965 35.953 A 3.855 3.855 0 0 1 180.84 33.088 Q 180.84 31.768 181.68 30.748 A 2.711 2.711 0 0 1 183.662 29.737 A 3.638 3.638 0 0 1 183.92 29.728 A 2.784 2.784 0 0 1 184.615 29.811 A 2.08 2.08 0 0 1 185.44 30.228 A 6.209 6.209 0 0 1 185.644 30.405 Q 186.04 30.766 186.04 30.928 A 0.098 0.098 0 0 1 186.027 30.971 Q 185.977 31.067 185.74 31.288 Q 185.507 31.506 185.274 31.844 A 5.463 5.463 0 0 0 185.14 32.048 A 1.795 1.795 0 0 0 184.932 32.539 Q 184.84 32.884 184.84 33.328 A 2.546 2.546 0 0 0 186.397 35.765 Q 187.552 36.332 189.566 36.399 A 16.683 16.683 0 0 0 190.12 36.408 A 13.998 13.998 0 0 0 191.864 36.306 Q 192.751 36.195 193.479 35.961 A 5.763 5.763 0 0 0 194.78 35.368 A 3.353 3.353 0 0 0 196.382 32.965 A 4.723 4.723 0 0 0 196.44 32.208 A 2.901 2.901 0 0 0 196.36 31.507 A 1.918 1.918 0 0 0 195.7 30.448 Q 195.029 29.904 193.965 29.656 A 6.628 6.628 0 0 0 193.74 29.608 A 15.814 15.814 0 0 0 192.296 29.396 A 20.567 20.567 0 0 0 191.04 29.308 Q 189.56 29.248 188.06 29.208 Q 186.56 29.168 185.28 28.968 A 6.399 6.399 0 0 1 184.106 28.656 A 4.725 4.725 0 0 1 182.94 28.028 A 2.181 2.181 0 0 1 182.167 26.918 Q 182.044 26.54 182.012 26.075 A 4.957 4.957 0 0 1 182 25.728 Q 182 24.248 183.06 23.148 A 3.334 3.334 0 0 1 184.46 22.298 Q 185.23 22.048 186.24 22.048 A 11.76 11.76 0 0 1 184.935 21.451 Q 183.522 20.688 182.892 19.723 A 3.4 3.4 0 0 1 182.82 19.608 A 6.153 6.153 0 0 1 182.125 17.963 A 5.333 5.333 0 0 1 181.96 16.648 Q 181.96 14.928 182.94 13.548 A 6.45 6.45 0 0 1 184.789 11.823 A 8.155 8.155 0 0 1 185.66 11.348 A 8.468 8.468 0 0 1 188.03 10.646 A 11.143 11.143 0 0 1 189.68 10.528 Q 190.8 10.528 192.02 10.708 Q 193.188 10.88 194.044 11.291 A 5.094 5.094 0 0 1 194.12 11.328 Z M 43.32 25.048 L 43.32 5.568 A 15.241 15.241 0 0 0 43.299 4.748 A 12.254 12.254 0 0 0 43.26 4.228 A 1.769 1.769 0 0 0 43.142 3.731 A 1.424 1.424 0 0 0 42.8 3.228 A 1.052 1.052 0 0 0 42.47 3.024 Q 42.143 2.89 41.624 2.858 A 5.629 5.629 0 0 0 41.28 2.848 A 2.257 2.257 0 0 1 40.876 2.813 A 1.861 1.861 0 0 1 40.62 2.748 Q 40.32 2.648 40.32 2.048 A 0.829 0.829 0 0 1 40.369 1.752 Q 40.459 1.515 40.715 1.402 A 1.107 1.107 0 0 1 40.96 1.328 Q 42.477 1.097 43.409 0.866 A 10.807 10.807 0 0 0 43.78 0.768 Q 44.76 0.488 45.28 0.288 Q 45.678 0.135 46.006 0.076 A 2.471 2.471 0 0 1 46.2 0.048 Q 46.396 0.024 46.555 0.074 A 0.648 0.648 0 0 1 46.74 0.168 A 0.444 0.444 0 0 1 46.88 0.346 Q 46.949 0.496 46.959 0.732 A 1.93 1.93 0 0 1 46.96 0.808 L 46.96 19.088 A 6.217 6.217 0 0 0 48.538 18.55 A 5.086 5.086 0 0 0 49.84 17.608 L 53.2 14.168 Q 53.44 13.888 53.74 13.568 A 2.112 2.112 0 0 0 53.904 13.372 Q 54.059 13.161 54.1 12.968 A 0.346 0.346 0 0 0 54.108 12.91 Q 54.118 12.675 53.77 12.532 A 1.296 1.296 0 0 0 53.76 12.528 Q 53.36 12.368 52.24 12.448 Q 51.854 12.378 51.776 11.878 A 1.621 1.621 0 0 1 51.76 11.728 A 0.958 0.958 0 0 1 51.82 11.385 A 0.882 0.882 0 0 1 51.94 11.168 A 0.642 0.642 0 0 1 52.095 11.018 A 0.535 0.535 0 0 1 52.4 10.928 Q 53.32 10.968 54.62 11.008 Q 55.905 11.048 56.779 11.048 A 39.512 39.512 0 0 0 56.8 11.048 Q 57.48 11.048 58.14 11.008 Q 58.8 10.968 59.48 10.928 Q 59.8 10.928 59.96 11.168 A 0.954 0.954 0 0 1 60.115 11.616 A 1.2 1.2 0 0 1 60.12 11.728 A 2.447 2.447 0 0 1 60.097 11.929 Q 60.047 12.24 59.924 12.333 A 0.204 0.204 0 0 1 59.9 12.348 Q 59.72 12.448 59.44 12.448 A 7.127 7.127 0 0 0 58.438 12.514 Q 57.55 12.641 56.92 13.008 Q 56.248 13.4 55.459 14.125 A 16.628 16.628 0 0 0 54.76 14.808 L 51.4 18.248 A 18.782 18.782 0 0 0 51.768 18.721 Q 51.961 18.963 52.19 19.234 A 43.18 43.18 0 0 0 52.68 19.808 Q 53.48 20.728 54.38 21.748 Q 55.28 22.768 56.08 23.668 Q 56.88 24.568 57.36 25.128 Q 58.467 26.311 59.228 26.967 A 11.054 11.054 0 0 0 59.3 27.028 A 3.102 3.102 0 0 0 60.717 27.699 A 4.055 4.055 0 0 0 61.24 27.768 A 7.516 7.516 0 0 1 61.624 27.826 A 6.285 6.285 0 0 1 61.84 27.868 Q 62.086 27.921 62.116 28.359 A 1.896 1.896 0 0 1 62.12 28.488 A 1.123 1.123 0 0 1 61.984 29.02 A 1.302 1.302 0 0 1 61.98 29.028 A 0.472 0.472 0 0 1 61.639 29.273 A 0.806 0.806 0 0 1 61.48 29.288 Q 60.92 29.248 60.56 29.228 Q 60.2 29.208 59.76 29.188 Q 59.423 29.173 58.864 29.169 A 56.815 56.815 0 0 0 58.5 29.168 L 56.16 29.168 Q 55.198 28.123 54.037 26.794 A 190.915 190.915 0 0 1 52.94 25.528 Q 51.12 23.408 49.32 21.328 A 4.036 4.036 0 0 0 48.833 20.877 A 5.48 5.48 0 0 0 48.3 20.508 Q 47.68 20.128 46.96 20.208 L 46.96 25.048 Q 46.96 25.728 47.02 26.368 A 1.77 1.77 0 0 0 47.135 26.862 A 1.401 1.401 0 0 0 47.5 27.388 A 1.156 1.156 0 0 0 47.857 27.6 Q 48.196 27.734 48.719 27.761 A 5.411 5.411 0 0 0 49 27.768 A 4.429 4.429 0 0 1 49.259 27.775 Q 49.387 27.783 49.496 27.798 A 1.93 1.93 0 0 1 49.66 27.828 A 0.271 0.271 0 0 1 49.824 27.949 Q 49.9 28.06 49.935 28.269 A 2.157 2.157 0 0 1 49.96 28.488 A 0.994 0.994 0 0 1 49.842 28.955 A 1.215 1.215 0 0 1 49.8 29.028 A 0.54 0.54 0 0 1 49.622 29.21 Q 49.519 29.273 49.384 29.285 A 0.731 0.731 0 0 1 49.32 29.288 Q 48.16 29.208 47.16 29.188 Q 46.16 29.168 45.12 29.168 Q 44.04 29.168 43.08 29.188 Q 42.12 29.208 40.96 29.288 A 0.621 0.621 0 0 1 40.751 29.254 Q 40.583 29.195 40.48 29.028 A 1.083 1.083 0 0 1 40.347 28.716 A 0.961 0.961 0 0 1 40.32 28.488 A 2.16 2.16 0 0 1 40.345 28.27 Q 40.381 28.057 40.459 27.945 A 0.269 0.269 0 0 1 40.62 27.828 A 2.152 2.152 0 0 1 40.862 27.788 Q 40.986 27.774 41.127 27.77 A 4.039 4.039 0 0 1 41.24 27.768 Q 42.36 27.768 42.78 27.388 A 1.44 1.44 0 0 0 43.221 26.617 A 1.95 1.95 0 0 0 43.26 26.368 Q 43.32 25.728 43.32 25.048 Z M 66 25.048 L 66 5.528 A 15.241 15.241 0 0 0 65.979 4.708 A 12.254 12.254 0 0 0 65.94 4.188 A 1.769 1.769 0 0 0 65.822 3.691 A 1.424 1.424 0 0 0 65.48 3.188 A 1.052 1.052 0 0 0 65.15 2.984 Q 64.823 2.85 64.304 2.818 A 5.629 5.629 0 0 0 63.96 2.808 A 2.257 2.257 0 0 1 63.556 2.773 A 1.861 1.861 0 0 1 63.3 2.708 Q 63 2.608 63 2.008 A 0.829 0.829 0 0 1 63.049 1.712 Q 63.139 1.475 63.395 1.362 A 1.107 1.107 0 0 1 63.64 1.288 Q 65.157 1.057 66.089 0.826 A 10.807 10.807 0 0 0 66.46 0.728 Q 67.268 0.497 67.763 0.307 A 6.29 6.29 0 0 0 67.96 0.228 A 3.371 3.371 0 0 1 68.326 0.096 Q 68.627 0.008 68.88 0.008 A 1.22 1.22 0 0 1 69.124 0.031 A 0.87 0.87 0 0 1 69.42 0.148 Q 69.64 0.288 69.64 0.768 L 69.64 13.648 L 69.72 13.648 Q 70.52 12.888 71.36 12.188 A 7.008 7.008 0 0 1 72.706 11.314 A 8.463 8.463 0 0 1 73.34 11.028 A 5.805 5.805 0 0 1 74.441 10.714 Q 74.973 10.614 75.586 10.582 A 11.27 11.27 0 0 1 76.16 10.568 A 7.288 7.288 0 0 1 78.025 10.794 A 5.223 5.223 0 0 1 80.48 12.208 Q 82.08 13.848 82.08 16.528 L 82.08 25.048 Q 82.08 25.728 82.14 26.368 A 1.77 1.77 0 0 0 82.255 26.862 A 1.401 1.401 0 0 0 82.62 27.388 A 1.156 1.156 0 0 0 82.977 27.6 Q 83.316 27.734 83.839 27.761 A 5.411 5.411 0 0 0 84.12 27.768 A 4.394 4.394 0 0 1 84.354 27.774 Q 84.595 27.787 84.76 27.828 Q 85 27.888 85.04 28.488 A 1.123 1.123 0 0 1 84.904 29.02 A 1.302 1.302 0 0 1 84.9 29.028 Q 84.76 29.288 84.44 29.288 Q 83.28 29.208 82.28 29.188 Q 81.28 29.168 80.24 29.168 Q 79.16 29.168 78.2 29.188 Q 77.24 29.208 76.08 29.288 A 0.621 0.621 0 0 1 75.871 29.254 Q 75.703 29.195 75.6 29.028 A 1.083 1.083 0 0 1 75.467 28.716 A 0.961 0.961 0 0 1 75.44 28.488 Q 75.476 27.95 75.672 27.846 A 0.211 0.211 0 0 1 75.72 27.828 A 1.635 1.635 0 0 1 75.886 27.796 Q 76.085 27.768 76.36 27.768 Q 77.48 27.768 77.9 27.388 A 1.375 1.375 0 0 0 78.332 26.599 A 1.883 1.883 0 0 0 78.36 26.368 Q 78.4 25.728 78.4 25.048 L 78.4 16.568 A 5.243 5.243 0 0 0 78.294 15.477 Q 78.044 14.301 77.2 13.668 A 4.511 4.511 0 0 0 75.787 12.94 A 4.108 4.108 0 0 0 74.6 12.768 A 6.284 6.284 0 0 0 73.339 12.889 A 4.87 4.87 0 0 0 72.2 13.268 A 7.503 7.503 0 0 0 71.367 13.732 Q 70.948 14.004 70.624 14.308 A 4.397 4.397 0 0 0 70.52 14.408 A 7.81 7.81 0 0 0 70.159 14.792 Q 69.836 15.162 69.671 15.469 A 2.124 2.124 0 0 0 69.64 15.528 L 69.64 25.048 Q 69.64 25.728 69.7 26.368 A 1.77 1.77 0 0 0 69.815 26.862 A 1.401 1.401 0 0 0 70.18 27.388 A 1.156 1.156 0 0 0 70.537 27.6 Q 70.876 27.734 71.399 27.761 A 5.411 5.411 0 0 0 71.68 27.768 A 4.394 4.394 0 0 1 71.914 27.774 Q 72.155 27.787 72.32 27.828 Q 72.56 27.888 72.6 28.488 A 1.123 1.123 0 0 1 72.464 29.02 A 1.302 1.302 0 0 1 72.46 29.028 Q 72.32 29.288 72 29.288 Q 70.84 29.208 69.84 29.188 Q 68.84 29.168 67.8 29.168 Q 66.72 29.168 65.76 29.188 Q 64.8 29.208 63.64 29.288 A 0.621 0.621 0 0 1 63.431 29.254 Q 63.263 29.195 63.16 29.028 A 1.083 1.083 0 0 1 63.027 28.716 A 0.961 0.961 0 0 1 63 28.488 A 2.16 2.16 0 0 1 63.025 28.27 Q 63.061 28.057 63.139 27.945 A 0.269 0.269 0 0 1 63.3 27.828 A 2.152 2.152 0 0 1 63.542 27.788 Q 63.666 27.774 63.807 27.77 A 4.039 4.039 0 0 1 63.92 27.768 Q 65.04 27.768 65.46 27.388 A 1.44 1.44 0 0 0 65.901 26.617 A 1.95 1.95 0 0 0 65.94 26.368 Q 66 25.728 66 25.048 Z M 136.52 25.048 L 136.52 15.888 A 15.241 15.241 0 0 0 136.499 15.068 A 12.254 12.254 0 0 0 136.46 14.548 A 1.769 1.769 0 0 0 136.342 14.051 A 1.424 1.424 0 0 0 136 13.548 A 1.052 1.052 0 0 0 135.67 13.344 Q 135.343 13.21 134.824 13.178 A 5.629 5.629 0 0 0 134.48 13.168 A 2.257 2.257 0 0 1 134.076 13.133 A 1.861 1.861 0 0 1 133.82 13.068 Q 133.52 12.968 133.52 12.368 A 0.829 0.829 0 0 1 133.569 12.072 Q 133.659 11.835 133.915 11.722 A 1.107 1.107 0 0 1 134.16 11.648 Q 135.677 11.417 136.609 11.186 A 10.807 10.807 0 0 0 136.98 11.088 Q 137.788 10.857 138.269 10.681 A 6.973 6.973 0 0 0 138.46 10.608 A 4.371 4.371 0 0 1 138.85 10.472 Q 139.123 10.392 139.36 10.368 Q 139.556 10.344 139.715 10.394 A 0.648 0.648 0 0 1 139.9 10.488 Q 140.12 10.648 140.12 11.128 L 140.12 13.648 L 140.24 13.648 Q 141.04 12.888 141.88 12.188 A 7.008 7.008 0 0 1 143.226 11.314 A 8.463 8.463 0 0 1 143.86 11.028 A 5.805 5.805 0 0 1 144.961 10.714 Q 145.493 10.614 146.106 10.582 A 11.27 11.27 0 0 1 146.68 10.568 A 7.288 7.288 0 0 1 148.545 10.794 A 5.223 5.223 0 0 1 151 12.208 Q 152.6 13.848 152.6 16.528 L 152.6 25.048 Q 152.6 25.728 152.66 26.368 A 1.77 1.77 0 0 0 152.775 26.862 A 1.401 1.401 0 0 0 153.14 27.388 A 1.133 1.133 0 0 0 153.486 27.594 Q 153.826 27.729 154.359 27.759 A 5.717 5.717 0 0 0 154.68 27.768 Q 154.973 27.768 155.2 27.808 A 1.92 1.92 0 0 1 155.3 27.828 A 0.271 0.271 0 0 1 155.464 27.949 Q 155.54 28.06 155.575 28.269 A 2.157 2.157 0 0 1 155.6 28.488 A 0.994 0.994 0 0 1 155.482 28.955 A 1.215 1.215 0 0 1 155.44 29.028 A 0.54 0.54 0 0 1 155.262 29.21 Q 155.159 29.273 155.024 29.285 A 0.731 0.731 0 0 1 154.96 29.288 Q 153.8 29.208 152.82 29.188 Q 151.84 29.168 150.76 29.168 Q 149.68 29.168 148.72 29.188 Q 147.76 29.208 146.6 29.288 Q 146.32 29.288 146.14 29.028 A 1.053 1.053 0 0 1 146.008 28.771 A 0.865 0.865 0 0 1 145.96 28.488 A 2.16 2.16 0 0 1 145.985 28.27 Q 146.021 28.057 146.099 27.945 A 0.269 0.269 0 0 1 146.26 27.828 A 2.152 2.152 0 0 1 146.502 27.788 Q 146.626 27.774 146.767 27.77 A 4.039 4.039 0 0 1 146.88 27.768 Q 148 27.768 148.42 27.388 A 1.44 1.44 0 0 0 148.861 26.617 A 1.95 1.95 0 0 0 148.9 26.368 Q 148.96 25.728 148.96 25.048 L 148.96 16.568 A 4.924 4.924 0 0 0 148.878 15.646 Q 148.743 14.933 148.38 14.408 A 3.603 3.603 0 0 0 147.348 13.4 A 3.465 3.465 0 0 0 146.92 13.168 Q 146.04 12.768 145.12 12.768 A 6.284 6.284 0 0 0 143.859 12.889 A 4.87 4.87 0 0 0 142.72 13.268 A 7.503 7.503 0 0 0 141.887 13.732 Q 141.468 14.004 141.144 14.308 A 4.397 4.397 0 0 0 141.04 14.408 A 7.81 7.81 0 0 0 140.679 14.792 Q 140.356 15.162 140.191 15.469 A 2.124 2.124 0 0 0 140.16 15.528 L 140.16 25.048 Q 140.16 25.728 140.22 26.368 A 1.77 1.77 0 0 0 140.335 26.862 A 1.401 1.401 0 0 0 140.7 27.388 A 1.133 1.133 0 0 0 141.046 27.594 Q 141.386 27.729 141.919 27.759 A 5.717 5.717 0 0 0 142.24 27.768 Q 142.533 27.768 142.76 27.808 A 1.92 1.92 0 0 1 142.86 27.828 A 0.271 0.271 0 0 1 143.024 27.949 Q 143.1 28.06 143.135 28.269 A 2.157 2.157 0 0 1 143.16 28.488 A 0.994 0.994 0 0 1 143.042 28.955 A 1.215 1.215 0 0 1 143 29.028 A 0.54 0.54 0 0 1 142.822 29.21 Q 142.719 29.273 142.584 29.285 A 0.731 0.731 0 0 1 142.52 29.288 Q 141.36 29.208 140.38 29.188 Q 139.4 29.168 138.32 29.168 Q 137.24 29.168 136.28 29.188 Q 135.32 29.208 134.16 29.288 Q 133.88 29.288 133.7 29.028 A 1.053 1.053 0 0 1 133.568 28.771 A 0.865 0.865 0 0 1 133.52 28.488 A 2.487 2.487 0 0 1 133.556 28.282 Q 133.645 27.877 133.84 27.828 A 1.635 1.635 0 0 1 134.006 27.796 Q 134.205 27.768 134.48 27.768 A 5.166 5.166 0 0 0 134.988 27.745 Q 135.698 27.675 136 27.388 A 1.45 1.45 0 0 0 136.404 26.69 A 1.993 1.993 0 0 0 136.46 26.368 Q 136.52 25.728 136.52 25.048 Z M 224.84 25.048 L 224.84 15.888 A 15.241 15.241 0 0 0 224.819 15.068 A 12.254 12.254 0 0 0 224.78 14.548 A 1.769 1.769 0 0 0 224.662 14.051 A 1.424 1.424 0 0 0 224.32 13.548 A 1.052 1.052 0 0 0 223.99 13.344 Q 223.663 13.21 223.144 13.178 A 5.629 5.629 0 0 0 222.8 13.168 A 2.257 2.257 0 0 1 222.396 13.133 A 1.861 1.861 0 0 1 222.14 13.068 Q 221.84 12.968 221.84 12.368 A 0.829 0.829 0 0 1 221.889 12.072 Q 221.979 11.835 222.235 11.722 A 1.107 1.107 0 0 1 222.48 11.648 Q 223.997 11.417 224.929 11.186 A 10.807 10.807 0 0 0 225.3 11.088 Q 226.108 10.857 226.589 10.681 A 6.973 6.973 0 0 0 226.78 10.608 A 4.371 4.371 0 0 1 227.17 10.472 Q 227.443 10.392 227.68 10.368 Q 227.876 10.344 228.035 10.394 A 0.648 0.648 0 0 1 228.22 10.488 Q 228.44 10.648 228.44 11.128 L 228.44 13.648 L 228.56 13.648 Q 229.36 12.888 230.2 12.188 A 7.008 7.008 0 0 1 231.546 11.314 A 8.463 8.463 0 0 1 232.18 11.028 A 5.805 5.805 0 0 1 233.281 10.714 Q 233.813 10.614 234.426 10.582 A 11.27 11.27 0 0 1 235 10.568 A 7.288 7.288 0 0 1 236.865 10.794 A 5.223 5.223 0 0 1 239.32 12.208 Q 240.92 13.848 240.92 16.528 L 240.92 25.048 Q 240.92 25.728 240.98 26.368 A 1.77 1.77 0 0 0 241.095 26.862 A 1.401 1.401 0 0 0 241.46 27.388 A 1.133 1.133 0 0 0 241.806 27.594 Q 242.146 27.729 242.679 27.759 A 5.717 5.717 0 0 0 243 27.768 Q 243.293 27.768 243.52 27.808 A 1.92 1.92 0 0 1 243.62 27.828 A 0.271 0.271 0 0 1 243.784 27.949 Q 243.86 28.06 243.895 28.269 A 2.157 2.157 0 0 1 243.92 28.488 A 0.994 0.994 0 0 1 243.802 28.955 A 1.215 1.215 0 0 1 243.76 29.028 A 0.54 0.54 0 0 1 243.582 29.21 Q 243.479 29.273 243.344 29.285 A 0.731 0.731 0 0 1 243.28 29.288 Q 242.12 29.208 241.14 29.188 Q 240.16 29.168 239.08 29.168 Q 238 29.168 237.04 29.188 Q 236.08 29.208 234.92 29.288 Q 234.64 29.288 234.46 29.028 A 1.053 1.053 0 0 1 234.328 28.771 A 0.865 0.865 0 0 1 234.28 28.488 A 2.16 2.16 0 0 1 234.305 28.27 Q 234.341 28.057 234.419 27.945 A 0.269 0.269 0 0 1 234.58 27.828 A 2.152 2.152 0 0 1 234.822 27.788 Q 234.946 27.774 235.087 27.77 A 4.039 4.039 0 0 1 235.2 27.768 Q 236.32 27.768 236.74 27.388 A 1.44 1.44 0 0 0 237.181 26.617 A 1.95 1.95 0 0 0 237.22 26.368 Q 237.28 25.728 237.28 25.048 L 237.28 16.568 A 4.924 4.924 0 0 0 237.198 15.646 Q 237.063 14.933 236.7 14.408 A 3.603 3.603 0 0 0 235.668 13.4 A 3.465 3.465 0 0 0 235.24 13.168 Q 234.36 12.768 233.44 12.768 A 6.284 6.284 0 0 0 232.179 12.889 A 4.87 4.87 0 0 0 231.04 13.268 A 7.503 7.503 0 0 0 230.207 13.732 Q 229.788 14.004 229.464 14.308 A 4.397 4.397 0 0 0 229.36 14.408 A 7.81 7.81 0 0 0 228.999 14.792 Q 228.676 15.162 228.511 15.469 A 2.124 2.124 0 0 0 228.48 15.528 L 228.48 25.048 Q 228.48 25.728 228.54 26.368 A 1.77 1.77 0 0 0 228.655 26.862 A 1.401 1.401 0 0 0 229.02 27.388 A 1.133 1.133 0 0 0 229.366 27.594 Q 229.706 27.729 230.239 27.759 A 5.717 5.717 0 0 0 230.56 27.768 Q 230.853 27.768 231.08 27.808 A 1.92 1.92 0 0 1 231.18 27.828 A 0.271 0.271 0 0 1 231.344 27.949 Q 231.42 28.06 231.455 28.269 A 2.157 2.157 0 0 1 231.48 28.488 A 0.994 0.994 0 0 1 231.362 28.955 A 1.215 1.215 0 0 1 231.32 29.028 A 0.54 0.54 0 0 1 231.142 29.21 Q 231.039 29.273 230.904 29.285 A 0.731 0.731 0 0 1 230.84 29.288 Q 229.68 29.208 228.7 29.188 Q 227.72 29.168 226.64 29.168 Q 225.56 29.168 224.6 29.188 Q 223.64 29.208 222.48 29.288 Q 222.2 29.288 222.02 29.028 A 1.053 1.053 0 0 1 221.888 28.771 A 0.865 0.865 0 0 1 221.84 28.488 A 2.487 2.487 0 0 1 221.876 28.282 Q 221.965 27.877 222.16 27.828 A 1.635 1.635 0 0 1 222.326 27.796 Q 222.525 27.768 222.8 27.768 A 5.166 5.166 0 0 0 223.308 27.745 Q 224.018 27.675 224.32 27.388 A 1.45 1.45 0 0 0 224.724 26.69 A 1.993 1.993 0 0 0 224.78 26.368 Q 224.84 25.728 224.84 25.048 Z M 159.6 23.688 L 159.6 16.288 A 15.241 15.241 0 0 0 159.579 15.468 A 12.254 12.254 0 0 0 159.54 14.948 A 1.769 1.769 0 0 0 159.422 14.451 A 1.424 1.424 0 0 0 159.08 13.948 A 1.052 1.052 0 0 0 158.75 13.744 Q 158.423 13.61 157.904 13.578 A 5.629 5.629 0 0 0 157.56 13.568 A 2.257 2.257 0 0 1 157.156 13.533 A 1.861 1.861 0 0 1 156.9 13.468 Q 156.6 13.368 156.6 12.768 A 0.829 0.829 0 0 1 156.649 12.472 Q 156.739 12.235 156.995 12.122 A 1.107 1.107 0 0 1 157.24 12.048 Q 158.757 11.817 159.689 11.586 A 10.807 10.807 0 0 0 160.06 11.488 Q 161.04 11.208 161.56 11.008 Q 161.958 10.855 162.286 10.796 A 2.471 2.471 0 0 1 162.48 10.768 Q 162.676 10.744 162.835 10.794 A 0.648 0.648 0 0 1 163.02 10.888 Q 163.24 11.048 163.24 11.528 L 163.24 23.648 A 4.924 4.924 0 0 0 163.322 24.571 Q 163.458 25.283 163.82 25.808 A 3.603 3.603 0 0 0 164.853 26.817 A 3.465 3.465 0 0 0 165.28 27.048 Q 166.16 27.448 167.08 27.448 A 6.611 6.611 0 0 0 168.294 27.342 A 4.886 4.886 0 0 0 169.52 26.948 Q 170.487 26.483 171.108 25.88 A 4.323 4.323 0 0 0 171.2 25.788 Q 171.741 25.23 171.968 24.829 A 1.808 1.808 0 0 0 172.04 24.688 L 172.04 16.288 A 15.241 15.241 0 0 0 172.019 15.468 A 12.254 12.254 0 0 0 171.98 14.948 A 1.769 1.769 0 0 0 171.862 14.451 A 1.424 1.424 0 0 0 171.52 13.948 A 1.052 1.052 0 0 0 171.19 13.744 Q 170.863 13.61 170.344 13.578 A 5.629 5.629 0 0 0 170 13.568 A 2.257 2.257 0 0 1 169.596 13.533 A 1.861 1.861 0 0 1 169.34 13.468 Q 169.04 13.368 169.04 12.768 A 0.829 0.829 0 0 1 169.089 12.472 Q 169.179 12.235 169.435 12.122 A 1.107 1.107 0 0 1 169.68 12.048 Q 171.197 11.817 172.129 11.586 A 10.807 10.807 0 0 0 172.5 11.488 Q 173.48 11.208 174 11.008 Q 174.398 10.855 174.726 10.796 A 2.471 2.471 0 0 1 174.92 10.768 Q 175.116 10.744 175.275 10.794 A 0.648 0.648 0 0 1 175.46 10.888 A 0.444 0.444 0 0 1 175.6 11.066 Q 175.669 11.216 175.679 11.452 A 1.93 1.93 0 0 1 175.68 11.528 L 175.68 25.368 Q 175.68 27.415 178.058 27.687 A 6.915 6.915 0 0 0 178.84 27.728 A 1.243 1.243 0 0 1 179.029 27.741 Q 179.271 27.779 179.372 27.922 A 0.355 0.355 0 0 1 179.4 27.968 Q 179.52 28.208 179.52 28.488 Q 179.52 29.016 178.915 29.153 A 1.607 1.607 0 0 1 178.84 29.168 L 172.4 29.608 A 0.485 0.485 0 0 1 172.282 29.595 Q 172.127 29.556 172.087 29.401 A 0.393 0.393 0 0 1 172.08 29.368 A 2.725 2.725 0 0 1 172.053 29.143 Q 172.04 28.988 172.04 28.808 L 172.04 26.568 L 171.96 26.568 A 34.901 34.901 0 0 1 170.553 27.828 A 38.697 38.697 0 0 1 170.34 28.008 A 7.192 7.192 0 0 1 168.792 28.99 A 8.403 8.403 0 0 1 168.34 29.188 A 5.805 5.805 0 0 1 167.239 29.502 Q 166.707 29.603 166.094 29.634 A 11.27 11.27 0 0 1 165.52 29.648 A 7.288 7.288 0 0 1 163.656 29.422 A 5.223 5.223 0 0 1 161.2 28.008 Q 159.6 26.368 159.6 23.688 Z M 213.72 18.888 L 213.72 15.728 A 6.066 6.066 0 0 0 213.614 14.557 Q 213.404 13.492 212.78 12.788 Q 212.088 12.008 210.693 11.802 A 7.503 7.503 0 0 0 209.6 11.728 A 3.42 3.42 0 0 0 207.716 12.299 A 4.281 4.281 0 0 0 207.5 12.448 A 2.338 2.338 0 0 0 206.539 14.158 A 3.428 3.428 0 0 0 206.52 14.528 A 2.123 2.123 0 0 0 206.58 15.045 A 1.614 1.614 0 0 0 206.84 15.608 Q 207.091 15.953 207.343 16.176 A 2.206 2.206 0 0 0 207.48 16.288 A 3.861 3.861 0 0 1 207.588 16.372 Q 207.8 16.543 207.8 16.608 A 0.208 0.208 0 0 1 207.776 16.696 Q 207.714 16.824 207.495 17.041 A 5.165 5.165 0 0 1 207.34 17.188 Q 206.88 17.608 206.08 17.608 Q 204.84 17.608 204.16 16.688 Q 203.48 15.768 203.48 14.648 A 3.962 3.962 0 0 1 203.607 13.618 A 2.849 2.849 0 0 1 204.42 12.248 A 5.082 5.082 0 0 1 205.806 11.336 A 6.771 6.771 0 0 1 206.84 10.968 Q 208.32 10.568 209.84 10.568 Q 211.64 10.568 213.34 11.008 A 5.675 5.675 0 0 1 215.313 11.93 A 5.366 5.366 0 0 1 216.14 12.688 A 3.886 3.886 0 0 1 216.892 14.01 Q 217.093 14.59 217.178 15.301 A 9.352 9.352 0 0 1 217.24 16.408 L 217.24 25.728 Q 217.28 26.128 217.44 26.688 Q 217.6 27.248 218.06 27.668 Q 218.52 28.088 219.32 28.088 Q 219.507 28.088 219.64 28.133 A 0.559 0.559 0 0 1 219.76 28.188 A 0.247 0.247 0 0 1 219.846 28.287 Q 219.919 28.428 219.92 28.722 A 2.455 2.455 0 0 1 219.92 28.728 A 0.553 0.553 0 0 1 219.7 29.174 A 0.976 0.976 0 0 1 219.52 29.288 A 2.809 2.809 0 0 1 219.003 29.483 A 3.611 3.611 0 0 1 218.6 29.568 Q 218.08 29.648 217.72 29.648 Q 216.24 29.648 215.08 28.788 A 3.358 3.358 0 0 1 213.737 26.526 A 4.44 4.44 0 0 1 213.72 26.408 A 5.632 5.632 0 0 1 211.154 28.802 A 6.865 6.865 0 0 1 211.1 28.828 Q 209.36 29.648 207.4 29.648 A 6.887 6.887 0 0 1 205.716 29.453 A 4.849 4.849 0 0 1 203.5 28.248 A 4.745 4.745 0 0 1 202.388 26.669 A 4.526 4.526 0 0 1 202.04 24.888 A 6.328 6.328 0 0 1 202.165 23.59 Q 202.333 22.788 202.727 22.173 A 3.591 3.591 0 0 1 203.1 21.688 A 5.87 5.87 0 0 1 204.855 20.388 A 7.636 7.636 0 0 1 205.9 19.968 A 17.017 17.017 0 0 1 208.383 19.378 A 20.592 20.592 0 0 1 209.7 19.208 Q 211.76 19.008 213.72 18.888 Z M 123.16 24.488 L 123.16 8.608 A 10.283 10.283 0 0 0 123.013 7.324 A 9.378 9.378 0 0 0 122.98 7.148 Q 122.84 6.448 122.32 5.988 Q 121.854 5.576 120.779 5.533 A 6.485 6.485 0 0 0 120.52 5.528 A 3.369 3.369 0 0 1 120.237 5.517 Q 120.091 5.504 119.966 5.479 A 1.712 1.712 0 0 1 119.84 5.448 A 0.303 0.303 0 0 1 119.671 5.315 Q 119.546 5.126 119.52 4.688 Q 119.52 4.368 119.68 4.088 Q 119.84 3.808 120.24 3.808 Q 121.52 3.848 122.66 3.888 Q 123.8 3.928 125 3.928 Q 127.44 3.928 130 3.808 A 0.73 0.73 0 0 1 130.231 3.843 A 0.577 0.577 0 0 1 130.54 4.088 Q 130.72 4.368 130.72 4.688 A 2.579 2.579 0 0 1 130.694 4.937 Q 130.626 5.368 130.416 5.443 A 0.262 0.262 0 0 1 130.4 5.448 A 1.8 1.8 0 0 1 130.17 5.496 Q 130.05 5.514 129.91 5.522 A 4.152 4.152 0 0 1 129.68 5.528 A 5.31 5.31 0 0 0 129.071 5.56 Q 128.418 5.636 128.034 5.888 A 1.334 1.334 0 0 0 127.9 5.988 Q 127.36 6.448 127.24 7.148 A 12.377 12.377 0 0 0 127.091 8.419 A 13.762 13.762 0 0 0 127.08 8.608 L 127.08 24.488 A 12.708 12.708 0 0 0 127.21 25.767 A 11.48 11.48 0 0 0 127.24 25.948 Q 127.36 26.648 127.9 27.108 Q 128.393 27.528 129.471 27.565 A 6.211 6.211 0 0 0 129.68 27.568 A 3.992 3.992 0 0 1 129.964 27.577 Q 130.102 27.587 130.219 27.608 A 1.714 1.714 0 0 1 130.4 27.648 A 0.303 0.303 0 0 1 130.569 27.781 Q 130.694 27.97 130.72 28.408 Q 130.72 28.728 130.54 29.008 A 0.579 0.579 0 0 1 130.121 29.279 A 0.816 0.816 0 0 1 130 29.288 Q 127.44 29.168 125.04 29.168 Q 123.84 29.168 122.68 29.188 A 51.911 51.911 0 0 0 120.951 29.248 A 60.267 60.267 0 0 0 120.24 29.288 A 0.888 0.888 0 0 1 120.029 29.265 A 0.528 0.528 0 0 1 119.68 29.008 Q 119.52 28.728 119.52 28.408 A 2.579 2.579 0 0 1 119.546 28.159 Q 119.614 27.728 119.824 27.653 A 0.262 0.262 0 0 1 119.84 27.648 A 1.894 1.894 0 0 1 120.098 27.595 Q 120.289 27.568 120.52 27.568 Q 121.8 27.568 122.32 27.108 Q 122.84 26.648 122.98 25.948 A 10.039 10.039 0 0 0 123.148 24.677 A 11.096 11.096 0 0 0 123.16 24.488 Z M 101.4 25.048 L 101.4 5.528 A 15.241 15.241 0 0 0 101.379 4.708 A 12.254 12.254 0 0 0 101.34 4.188 A 1.769 1.769 0 0 0 101.222 3.691 A 1.424 1.424 0 0 0 100.88 3.188 A 1.052 1.052 0 0 0 100.55 2.984 Q 100.223 2.85 99.704 2.818 A 5.629 5.629 0 0 0 99.36 2.808 A 2.257 2.257 0 0 1 98.956 2.773 A 1.861 1.861 0 0 1 98.7 2.708 Q 98.4 2.608 98.4 2.008 A 0.829 0.829 0 0 1 98.449 1.712 Q 98.539 1.475 98.795 1.362 A 1.107 1.107 0 0 1 99.04 1.288 Q 100.557 1.057 101.489 0.826 A 10.807 10.807 0 0 0 101.86 0.728 Q 102.84 0.448 103.36 0.248 Q 103.758 0.095 104.086 0.036 A 2.471 2.471 0 0 1 104.28 0.008 Q 104.476 -0.016 104.635 0.034 A 0.648 0.648 0 0 1 104.82 0.128 A 0.444 0.444 0 0 1 104.96 0.306 Q 105.029 0.456 105.039 0.692 A 1.93 1.93 0 0 1 105.04 0.768 L 105.04 25.048 Q 105.04 25.728 105.1 26.368 A 1.77 1.77 0 0 0 105.215 26.862 A 1.401 1.401 0 0 0 105.58 27.388 A 1.133 1.133 0 0 0 105.926 27.594 Q 106.266 27.729 106.799 27.759 A 5.717 5.717 0 0 0 107.12 27.768 Q 107.413 27.768 107.64 27.808 A 1.92 1.92 0 0 1 107.74 27.828 A 0.271 0.271 0 0 1 107.904 27.949 Q 107.98 28.06 108.015 28.269 A 2.157 2.157 0 0 1 108.04 28.488 A 0.994 0.994 0 0 1 107.922 28.955 A 1.215 1.215 0 0 1 107.88 29.028 A 0.54 0.54 0 0 1 107.702 29.21 Q 107.599 29.273 107.464 29.285 A 0.731 0.731 0 0 1 107.4 29.288 Q 106.24 29.208 105.26 29.188 Q 104.28 29.168 103.2 29.168 Q 102.12 29.168 101.16 29.188 Q 100.2 29.208 99.04 29.288 Q 98.76 29.288 98.58 29.028 A 1.053 1.053 0 0 1 98.448 28.771 A 0.865 0.865 0 0 1 98.4 28.488 A 2.16 2.16 0 0 1 98.425 28.27 Q 98.461 28.057 98.539 27.945 A 0.269 0.269 0 0 1 98.7 27.828 A 2.152 2.152 0 0 1 98.942 27.788 Q 99.066 27.774 99.207 27.77 A 4.039 4.039 0 0 1 99.32 27.768 Q 100.44 27.768 100.86 27.388 A 1.44 1.44 0 0 0 101.301 26.617 A 1.95 1.95 0 0 0 101.34 26.368 Q 101.4 25.728 101.4 25.048 Z M 248.08 24.288 L 248.08 12.528 L 245.76 12.608 A 0.563 0.563 0 0 1 245.58 12.581 A 0.449 0.449 0 0 1 245.34 12.388 A 0.899 0.899 0 0 1 245.201 11.94 A 1.088 1.088 0 0 1 245.2 11.888 A 1.724 1.724 0 0 1 245.227 11.571 Q 245.259 11.4 245.329 11.276 A 0.621 0.621 0 0 1 245.76 10.968 A 7.247 7.247 0 0 0 246.654 10.743 Q 247.097 10.599 247.449 10.406 A 3.122 3.122 0 0 0 248 10.028 Q 248.76 9.368 249.18 8.448 A 18.899 18.899 0 0 0 249.682 7.236 A 22.57 22.57 0 0 0 249.96 6.448 A 0.984 0.984 0 0 1 250.049 6.266 Q 250.117 6.158 250.208 6.092 A 0.536 0.536 0 0 1 250.32 6.028 A 1.318 1.318 0 0 1 250.771 5.93 A 1.528 1.528 0 0 1 250.84 5.928 A 1.146 1.146 0 0 1 251.062 5.951 Q 251.211 5.981 251.38 6.048 A 0.537 0.537 0 0 1 251.538 6.143 Q 251.657 6.248 251.676 6.42 A 0.618 0.618 0 0 1 251.68 6.488 L 251.4 11.048 L 256.08 10.768 A 0.943 0.943 0 0 1 256.142 10.763 Q 256.244 10.759 256.325 10.78 A 0.349 0.349 0 0 1 256.56 10.968 A 1.118 1.118 0 0 1 256.662 11.295 A 1.487 1.487 0 0 1 256.68 11.528 A 2.4 2.4 0 0 1 256.55 12.3 A 2.699 2.699 0 0 1 256.54 12.328 A 1.88 1.88 0 0 1 256.538 12.333 Q 256.399 12.728 256.2 12.728 L 251.72 12.608 L 251.72 24.768 A 4.668 4.668 0 0 0 251.967 26.3 A 4.318 4.318 0 0 0 252.22 26.888 Q 252.72 27.848 254.04 27.848 A 5.768 5.768 0 0 0 254.448 27.833 Q 254.656 27.818 254.885 27.789 A 9.795 9.795 0 0 0 255.04 27.768 Q 255.583 27.691 256.2 27.425 A 6.393 6.393 0 0 0 256.24 27.408 Q 256.4 27.328 256.56 27.268 A 0.922 0.922 0 0 1 256.82 27.21 A 0.855 0.855 0 0 1 256.88 27.208 A 0.621 0.621 0 0 1 257.089 27.242 Q 257.258 27.301 257.36 27.468 Q 257.52 27.728 257.64 28.008 A 0.677 0.677 0 0 1 257.664 28.1 Q 257.708 28.34 257.531 28.5 A 0.647 0.647 0 0 1 257.44 28.568 Q 256.491 29.181 255.659 29.465 A 5.072 5.072 0 0 1 255.16 29.608 A 9.153 9.153 0 0 1 253.932 29.8 A 12.049 12.049 0 0 1 252.84 29.848 Q 251.64 29.848 250.56 29.248 Q 249.48 28.648 248.78 27.408 A 5.089 5.089 0 0 1 248.261 26.032 Q 248.12 25.415 248.089 24.698 A 9.543 9.543 0 0 1 248.08 24.288 Z M 31.88 25.048 L 31.88 15.888 A 15.241 15.241 0 0 0 31.859 15.068 A 12.254 12.254 0 0 0 31.82 14.548 A 1.769 1.769 0 0 0 31.702 14.051 A 1.424 1.424 0 0 0 31.36 13.548 A 1.052 1.052 0 0 0 31.03 13.344 Q 30.703 13.21 30.184 13.178 A 5.629 5.629 0 0 0 29.84 13.168 A 2.257 2.257 0 0 1 29.436 13.133 A 1.861 1.861 0 0 1 29.18 13.068 Q 28.88 12.968 28.88 12.368 A 0.829 0.829 0 0 1 28.929 12.072 Q 29.019 11.835 29.275 11.722 A 1.107 1.107 0 0 1 29.52 11.648 Q 31.037 11.417 31.969 11.186 A 10.807 10.807 0 0 0 32.34 11.088 Q 33.32 10.808 33.84 10.608 Q 34.238 10.455 34.566 10.396 A 2.471 2.471 0 0 1 34.76 10.368 Q 34.956 10.344 35.115 10.394 A 0.648 0.648 0 0 1 35.3 10.488 Q 35.52 10.648 35.52 11.128 L 35.52 25.048 Q 35.52 25.728 35.58 26.368 A 1.77 1.77 0 0 0 35.695 26.862 A 1.401 1.401 0 0 0 36.06 27.388 A 1.133 1.133 0 0 0 36.406 27.594 Q 36.746 27.729 37.279 27.759 A 5.717 5.717 0 0 0 37.6 27.768 Q 37.893 27.768 38.12 27.808 A 1.92 1.92 0 0 1 38.22 27.828 A 0.271 0.271 0 0 1 38.384 27.949 Q 38.46 28.06 38.495 28.269 A 2.157 2.157 0 0 1 38.52 28.488 A 0.994 0.994 0 0 1 38.402 28.955 A 1.215 1.215 0 0 1 38.36 29.028 A 0.54 0.54 0 0 1 38.182 29.21 Q 38.079 29.273 37.944 29.285 A 0.731 0.731 0 0 1 37.88 29.288 Q 36.72 29.208 35.74 29.188 Q 34.76 29.168 33.68 29.168 Q 32.6 29.168 31.64 29.188 Q 30.68 29.208 29.52 29.288 Q 29.24 29.288 29.06 29.028 A 1.053 1.053 0 0 1 28.928 28.771 A 0.865 0.865 0 0 1 28.88 28.488 A 2.487 2.487 0 0 1 28.916 28.282 Q 29.005 27.877 29.2 27.828 A 1.635 1.635 0 0 1 29.366 27.796 Q 29.565 27.768 29.84 27.768 A 5.166 5.166 0 0 0 30.348 27.745 Q 31.058 27.675 31.36 27.388 A 1.45 1.45 0 0 0 31.764 26.69 A 1.993 1.993 0 0 0 31.82 26.368 Q 31.88 25.728 31.88 25.048 Z M 89.96 25.048 L 89.96 15.888 A 15.241 15.241 0 0 0 89.939 15.068 A 12.254 12.254 0 0 0 89.9 14.548 A 1.769 1.769 0 0 0 89.782 14.051 A 1.424 1.424 0 0 0 89.44 13.548 A 1.052 1.052 0 0 0 89.11 13.344 Q 88.783 13.21 88.264 13.178 A 5.629 5.629 0 0 0 87.92 13.168 A 2.257 2.257 0 0 1 87.516 13.133 A 1.861 1.861 0 0 1 87.26 13.068 Q 86.96 12.968 86.96 12.368 A 0.829 0.829 0 0 1 87.009 12.072 Q 87.099 11.835 87.355 11.722 A 1.107 1.107 0 0 1 87.6 11.648 Q 89.117 11.417 90.049 11.186 A 10.807 10.807 0 0 0 90.42 11.088 Q 91.4 10.808 91.92 10.608 Q 92.318 10.455 92.646 10.396 A 2.471 2.471 0 0 1 92.84 10.368 Q 93.036 10.344 93.195 10.394 A 0.648 0.648 0 0 1 93.38 10.488 Q 93.6 10.648 93.6 11.128 L 93.6 25.048 Q 93.6 25.728 93.66 26.368 A 1.77 1.77 0 0 0 93.775 26.862 A 1.401 1.401 0 0 0 94.14 27.388 A 1.133 1.133 0 0 0 94.486 27.594 Q 94.826 27.729 95.359 27.759 A 5.717 5.717 0 0 0 95.68 27.768 Q 95.973 27.768 96.2 27.808 A 1.92 1.92 0 0 1 96.3 27.828 A 0.271 0.271 0 0 1 96.464 27.949 Q 96.54 28.06 96.575 28.269 A 2.157 2.157 0 0 1 96.6 28.488 A 0.994 0.994 0 0 1 96.482 28.955 A 1.215 1.215 0 0 1 96.44 29.028 A 0.54 0.54 0 0 1 96.262 29.21 Q 96.159 29.273 96.024 29.285 A 0.731 0.731 0 0 1 95.96 29.288 Q 94.8 29.208 93.82 29.188 Q 92.84 29.168 91.76 29.168 Q 90.68 29.168 89.72 29.188 Q 88.76 29.208 87.6 29.288 Q 87.32 29.288 87.14 29.028 A 1.053 1.053 0 0 1 87.008 28.771 A 0.865 0.865 0 0 1 86.96 28.488 A 2.487 2.487 0 0 1 86.996 28.282 Q 87.085 27.877 87.28 27.828 A 1.635 1.635 0 0 1 87.446 27.796 Q 87.645 27.768 87.92 27.768 A 5.166 5.166 0 0 0 88.428 27.745 Q 89.138 27.675 89.44 27.388 A 1.45 1.45 0 0 0 89.844 26.69 A 1.993 1.993 0 0 0 89.9 26.368 Q 89.96 25.728 89.96 25.048 Z M 263.68 25.048 L 263.68 15.888 A 15.241 15.241 0 0 0 263.659 15.068 A 12.254 12.254 0 0 0 263.62 14.548 A 1.769 1.769 0 0 0 263.502 14.051 A 1.424 1.424 0 0 0 263.16 13.548 A 1.052 1.052 0 0 0 262.83 13.344 Q 262.503 13.21 261.984 13.178 A 5.629 5.629 0 0 0 261.64 13.168 A 2.257 2.257 0 0 1 261.236 13.133 A 1.861 1.861 0 0 1 260.98 13.068 Q 260.68 12.968 260.68 12.368 A 0.829 0.829 0 0 1 260.729 12.072 Q 260.819 11.835 261.075 11.722 A 1.107 1.107 0 0 1 261.32 11.648 Q 262.837 11.417 263.769 11.186 A 10.807 10.807 0 0 0 264.14 11.088 Q 265.12 10.808 265.64 10.608 Q 266.038 10.455 266.366 10.396 A 2.471 2.471 0 0 1 266.56 10.368 Q 266.756 10.344 266.915 10.394 A 0.648 0.648 0 0 1 267.1 10.488 Q 267.32 10.648 267.32 11.128 L 267.32 25.048 Q 267.32 25.728 267.38 26.368 A 1.77 1.77 0 0 0 267.495 26.862 A 1.401 1.401 0 0 0 267.86 27.388 A 1.133 1.133 0 0 0 268.206 27.594 Q 268.546 27.729 269.079 27.759 A 5.717 5.717 0 0 0 269.4 27.768 Q 269.693 27.768 269.92 27.808 A 1.92 1.92 0 0 1 270.02 27.828 A 0.271 0.271 0 0 1 270.184 27.949 Q 270.26 28.06 270.295 28.269 A 2.157 2.157 0 0 1 270.32 28.488 A 0.994 0.994 0 0 1 270.202 28.955 A 1.215 1.215 0 0 1 270.16 29.028 A 0.54 0.54 0 0 1 269.982 29.21 Q 269.879 29.273 269.744 29.285 A 0.731 0.731 0 0 1 269.68 29.288 Q 268.52 29.208 267.54 29.188 Q 266.56 29.168 265.48 29.168 Q 264.4 29.168 263.44 29.188 Q 262.48 29.208 261.32 29.288 Q 261.04 29.288 260.86 29.028 A 1.053 1.053 0 0 1 260.728 28.771 A 0.865 0.865 0 0 1 260.68 28.488 A 2.487 2.487 0 0 1 260.716 28.282 Q 260.805 27.877 261 27.828 A 1.635 1.635 0 0 1 261.166 27.796 Q 261.365 27.768 261.64 27.768 A 5.166 5.166 0 0 0 262.148 27.745 Q 262.858 27.675 263.16 27.388 A 1.45 1.45 0 0 0 263.564 26.69 A 1.993 1.993 0 0 0 263.62 26.368 Q 263.68 25.728 263.68 25.048 Z M 189.68 21.648 Q 191.52 21.648 192.68 20.348 A 4.209 4.209 0 0 0 193.541 18.792 Q 193.742 18.157 193.808 17.39 A 9.136 9.136 0 0 0 193.84 16.608 A 6.871 6.871 0 0 0 193.694 15.149 Q 193.425 13.911 192.66 13.068 Q 191.48 11.768 189.64 11.768 A 4.027 4.027 0 0 0 187.934 12.124 A 3.954 3.954 0 0 0 186.7 13.028 A 4.161 4.161 0 0 0 185.73 14.812 Q 185.559 15.439 185.527 16.18 A 8.076 8.076 0 0 0 185.52 16.528 A 8.108 8.108 0 0 0 185.647 18.011 Q 185.802 18.84 186.144 19.495 A 4.101 4.101 0 0 0 186.7 20.308 A 3.778 3.778 0 0 0 189.444 21.642 A 4.677 4.677 0 0 0 189.68 21.648 Z M 213.72 22.328 L 213.72 20.048 Q 210.378 20.275 208.589 21.002 A 5.666 5.666 0 0 0 207.84 21.368 A 3.426 3.426 0 0 0 206.153 23.864 A 5.368 5.368 0 0 0 206.08 24.768 A 4.109 4.109 0 0 0 206.204 25.828 Q 206.568 27.186 207.993 27.433 A 4.025 4.025 0 0 0 208.68 27.488 Q 210.04 27.488 211.18 26.808 Q 212.32 26.128 213.02 24.948 Q 213.72 23.768 213.72 22.328 Z M 32.509 5.774 A 2.959 2.959 0 0 0 33.48 5.928 Q 34.6 5.928 35.36 5.248 A 2.809 2.809 0 0 0 35.452 5.162 A 2.101 2.101 0 0 0 36.12 3.608 A 3.284 3.284 0 0 0 36.093 3.177 A 2.417 2.417 0 0 0 35.48 1.828 A 2.088 2.088 0 0 0 34.672 1.272 A 2.331 2.331 0 0 0 33.84 1.128 Q 32.68 1.128 31.76 1.848 A 3.697 3.697 0 0 0 31.716 1.883 Q 31.429 2.115 31.236 2.367 A 1.808 1.808 0 0 0 30.84 3.488 A 2.783 2.783 0 0 0 30.842 3.585 A 2.26 2.26 0 0 0 31.6 5.228 A 2.565 2.565 0 0 0 32.509 5.774 Z M 90.589 5.774 A 2.959 2.959 0 0 0 91.56 5.928 Q 92.68 5.928 93.44 5.248 A 2.809 2.809 0 0 0 93.532 5.162 A 2.101 2.101 0 0 0 94.2 3.608 A 3.284 3.284 0 0 0 94.173 3.177 A 2.417 2.417 0 0 0 93.56 1.828 A 2.088 2.088 0 0 0 92.752 1.272 A 2.331 2.331 0 0 0 91.92 1.128 Q 90.76 1.128 89.84 1.848 A 3.697 3.697 0 0 0 89.796 1.883 Q 89.509 2.115 89.316 2.367 A 1.808 1.808 0 0 0 88.92 3.488 A 2.783 2.783 0 0 0 88.922 3.585 A 2.26 2.26 0 0 0 89.68 5.228 A 2.565 2.565 0 0 0 90.589 5.774 Z M 264.309 5.774 A 2.959 2.959 0 0 0 265.28 5.928 Q 266.4 5.928 267.16 5.248 A 2.809 2.809 0 0 0 267.252 5.162 A 2.101 2.101 0 0 0 267.92 3.608 A 3.284 3.284 0 0 0 267.893 3.177 A 2.417 2.417 0 0 0 267.28 1.828 A 2.088 2.088 0 0 0 266.472 1.272 A 2.331 2.331 0 0 0 265.64 1.128 Q 264.48 1.128 263.56 1.848 A 3.697 3.697 0 0 0 263.516 1.883 Q 263.229 2.115 263.036 2.367 A 1.808 1.808 0 0 0 262.64 3.488 A 2.783 2.783 0 0 0 262.642 3.585 A 2.26 2.26 0 0 0 263.4 5.228 A 2.565 2.565 0 0 0 264.309 5.774 Z" vector-effect="non-scaling-stroke"/></g></svg>